<svg width="69" height="19" viewBox="0 0 69 19" fill="none" xmlns="http://www.w3.org/2000/svg">
<rect x="67.7627" y="17.6081" width="34.2632" height="17.1081" rx="8.55405" transform="rotate(-180 67.7627 17.6081)" fill="#323232" fill-opacity="0.2" stroke="#5B5B5B"/>
<circle cx="59.0063" cy="9.05396" r="6.19488" transform="rotate(-180 59.0063 9.05396)" fill="white" fill-opacity="0.5"/>
<path d="M7.53971 9.38997H6.45971V8.41497L9.53471 5.45997H4.65971V4.15497H11.3947V5.33997L8.42471 8.17497C10.2697 8.39997 11.6647 9.64497 11.6647 11.595C11.6647 13.785 10.0147 15.18 7.80971 15.18C5.67971 15.18 4.14971 13.875 4.14971 11.625H5.60471C5.60471 13.035 6.47471 13.86 7.83971 13.86C9.24971 13.86 10.1647 12.96 10.1647 11.565C10.1647 10.26 9.26471 9.38997 7.53971 9.38997ZM19.3201 15H15.7351V4.15497H19.2601C22.5001 4.15497 24.6901 6.34497 24.6901 9.58497C24.6901 12.81 22.5301 15 19.3201 15ZM19.1551 5.50497H17.2051V13.635H19.2151C21.6301 13.635 23.1601 12.075 23.1601 9.58497C23.1601 7.06497 21.6301 5.50497 19.1551 5.50497Z" fill="#8D8D8D"/>
</svg>
