<svg width="69" height="19" viewBox="0 0 69 19" fill="none" xmlns="http://www.w3.org/2000/svg">
<rect x="33.5" y="0.5" width="34.2632" height="17.1081" rx="8.55405" fill="#323232" fill-opacity="0.2" stroke="#5B5B5B"/>
<circle cx="42.2564" cy="9.05413" r="6.19488" fill="white" fill-opacity="0.5"/>
<path d="M11.6584 14.985L4.33844 15V13.875L7.83344 10.86C9.58844 9.345 10.0834 8.61 10.0834 7.455C10.0834 6.09 9.30344 5.28 7.99844 5.28C6.66344 5.28 5.79344 6.255 5.76344 7.8H4.29344C4.33844 5.475 5.80844 3.96 8.01344 3.96C10.1884 3.96 11.5834 5.28 11.5834 7.365C11.5834 8.91 10.8184 10.005 8.89844 11.67L6.64844 13.62H11.6584V14.985ZM19.3714 15H15.7864V4.155H19.3114C22.5514 4.155 24.7414 6.345 24.7414 9.585C24.7414 12.81 22.5814 15 19.3714 15ZM19.2064 5.505H17.2564V13.635H19.2664C21.6814 13.635 23.2114 12.075 23.2114 9.585C23.2114 7.065 21.6814 5.505 19.2064 5.505Z" fill="#8D8D8D"/>
</svg>
