<svg width="228" height="77" viewBox="0 0 228 77" fill="none" xmlns="http://www.w3.org/2000/svg">
<path d="M90.44 27.16C90.44 36.2 84.48 42.48 75.88 42.48C67.32 42.48 61.44 36.24 61.44 27.2C61.44 18.16 67.36 11.88 75.92 11.88C84.52 11.88 90.44 18.12 90.44 27.16ZM83.6 27.16C83.6 21.52 80.72 18.12 75.96 18.12C71.16 18.12 68.28 21.52 68.28 27.16C68.28 32.84 71.16 36.24 75.96 36.24C80.72 36.24 83.6 32.76 83.6 27.16ZM111.955 22V27.8H109.995C106.475 27.8 104.355 29.36 104.355 33.32V42H98.195V22.04H103.995L104.315 25C105.155 23.04 106.915 21.72 109.595 21.72C110.315 21.72 111.115 21.8 111.955 22ZM124.87 42H119.07V11.84H125.23V24.32C126.43 22.52 129.07 21.32 131.95 21.32C137.55 21.32 141.11 25.68 141.11 32.2C141.11 38.4 137.15 42.52 131.47 42.52C128.67 42.52 126.27 41.28 125.19 39.44L124.87 42ZM125.27 31.88C125.27 34.88 127.27 36.88 130.15 36.88C133.07 36.88 134.91 34.84 134.91 31.88C134.91 28.92 133.07 26.88 130.15 26.88C127.27 26.88 125.27 28.88 125.27 31.88ZM157.936 42.52C151.896 42.52 147.576 38.12 147.576 31.96C147.576 25.72 151.776 21.36 157.816 21.36C164.096 21.36 168.016 25.48 168.016 32V33.56L153.496 33.64C153.856 36.28 155.336 37.52 158.056 37.52C160.376 37.52 162.016 36.68 162.456 35.24H168.096C167.376 39.68 163.416 42.52 157.936 42.52ZM157.856 26.36C155.416 26.36 154.056 27.44 153.576 29.84H161.896C161.896 27.72 160.336 26.36 157.856 26.36Z" fill="url(#paint0_linear_313_32)"/>
<path d="M1.74055 71V56.54H7.26055C10.0805 56.54 11.8005 57.98 11.8005 60.36C11.8005 62.02 11.0805 63.14 9.64055 63.74C11.2405 64.26 12.0605 65.42 12.0605 67.14C12.0605 69.54 10.3205 71 7.46055 71H1.74055ZM7.14055 58.28H3.70055V62.92H7.26055C8.88055 62.92 9.80055 62.04 9.80055 60.54C9.80055 59.1 8.84055 58.28 7.14055 58.28ZM7.42055 64.62H3.70055V69.26H7.42055C9.10055 69.26 10.0405 68.4 10.0405 66.9C10.0405 65.46 9.08055 64.62 7.42055 64.62ZM18.114 58.9C17.434 58.9 16.874 58.34 16.874 57.66C16.874 56.96 17.434 56.42 18.114 56.42C18.794 56.42 19.354 56.96 19.354 57.66C19.354 58.34 18.794 58.9 18.114 58.9ZM17.194 71V61.22H19.074V71H17.194ZM26.6834 71H24.8034V61.22H26.5034L26.7034 62.72C27.3234 61.6 28.5634 60.94 29.9434 60.94C32.5234 60.94 33.7034 62.52 33.7034 65.02V71H31.8234V65.44C31.8234 63.46 30.9034 62.66 29.4634 62.66C27.7034 62.66 26.6834 63.92 26.6834 65.82V71ZM42.1673 71.24C40.0673 71.24 38.8273 70.06 38.8273 68.28C38.8273 66.48 40.1673 65.36 42.4673 65.18L45.5473 64.94V64.66C45.5473 63.02 44.5673 62.44 43.2473 62.44C41.6673 62.44 40.7673 63.14 40.7673 64.32H39.1273C39.1273 62.28 40.8073 60.94 43.3273 60.94C45.7473 60.94 47.3873 62.22 47.3873 64.86V71H45.7873L45.5873 69.42C45.0873 70.54 43.7473 71.24 42.1673 71.24ZM42.7073 69.78C44.4873 69.78 45.5673 68.62 45.5673 66.78V66.26L43.0673 66.46C41.4073 66.62 40.7273 67.26 40.7273 68.22C40.7273 69.26 41.4873 69.78 42.7073 69.78ZM59.7509 61.22H61.6109V71H59.9309L59.7309 69.52C59.1709 70.54 57.8709 71.24 56.4309 71.24C54.1509 71.24 52.8709 69.7 52.8709 67.3V61.22H54.7509V66.68C54.7509 68.78 55.6509 69.58 57.0909 69.58C58.8109 69.58 59.7509 68.48 59.7509 66.38V61.22ZM72.9385 61.14V62.86H72.0985C70.3185 62.86 69.2185 63.94 69.2185 65.82V71H67.3385V61.24H69.0985L69.2185 62.72C69.6185 61.7 70.5985 61.02 71.9385 61.02C72.2785 61.02 72.5585 61.06 72.9385 61.14ZM80.1712 71.24C78.0712 71.24 76.8312 70.06 76.8312 68.28C76.8312 66.48 78.1712 65.36 80.4712 65.18L83.5512 64.94V64.66C83.5512 63.02 82.5712 62.44 81.2512 62.44C79.6712 62.44 78.7712 63.14 78.7712 64.32H77.1312C77.1312 62.28 78.8112 60.94 81.3312 60.94C83.7512 60.94 85.3912 62.22 85.3912 64.86V71H83.7912L83.5912 69.42C83.0912 70.54 81.7512 71.24 80.1712 71.24ZM80.7112 69.78C82.4912 69.78 83.5712 68.62 83.5712 66.78V66.26L81.0712 66.46C79.4112 66.62 78.7312 67.26 78.7312 68.22C78.7312 69.26 79.4912 69.78 80.7112 69.78ZM92.9148 71H91.0348V56.28H92.9148V71ZM106.631 60.44C106.631 57.96 108.631 56.28 111.611 56.28C114.371 56.28 116.151 57.82 116.311 60.32H114.331C114.231 58.88 113.211 58.04 111.591 58.04C109.771 58.04 108.591 58.96 108.591 60.38C108.591 61.54 109.251 62.24 110.611 62.56L112.991 63.12C115.351 63.66 116.551 64.94 116.551 66.98C116.551 69.58 114.531 71.24 111.451 71.24C108.511 71.24 106.551 69.7 106.431 67.22H108.431C108.471 68.6 109.631 69.48 111.451 69.48C113.371 69.48 114.591 68.58 114.591 67.14C114.591 66 113.971 65.28 112.591 64.96L110.211 64.42C107.851 63.88 106.631 62.52 106.631 60.44ZM121.694 75.38V61.22H123.394L123.534 62.98C124.194 61.64 125.514 60.94 127.074 60.94C129.874 60.94 131.614 63.04 131.614 66.04C131.614 69.02 129.974 71.26 127.074 71.26C125.514 71.26 124.214 70.6 123.574 69.4V75.38H121.694ZM123.594 66.12C123.594 68.12 124.754 69.56 126.674 69.56C128.594 69.56 129.734 68.12 129.734 66.12C129.734 64.1 128.594 62.66 126.674 62.66C124.754 62.66 123.594 64.08 123.594 66.12ZM139.546 71.24C137.446 71.24 136.206 70.06 136.206 68.28C136.206 66.48 137.546 65.36 139.846 65.18L142.926 64.94V64.66C142.926 63.02 141.946 62.44 140.626 62.44C139.046 62.44 138.146 63.14 138.146 64.32H136.506C136.506 62.28 138.186 60.94 140.706 60.94C143.126 60.94 144.766 62.22 144.766 64.86V71H143.166L142.966 69.42C142.466 70.54 141.126 71.24 139.546 71.24ZM140.086 69.78C141.866 69.78 142.946 68.62 142.946 66.78V66.26L140.446 66.46C138.786 66.62 138.106 67.26 138.106 68.22C138.106 69.26 138.866 69.78 140.086 69.78ZM152.974 71H151.094V62.8H149.174V61.22H151.094V58.16H152.974V61.22H154.894V62.8H152.974V71ZM160.501 58.9C159.821 58.9 159.261 58.34 159.261 57.66C159.261 56.96 159.821 56.42 160.501 56.42C161.181 56.42 161.741 56.96 161.741 57.66C161.741 58.34 161.181 58.9 160.501 58.9ZM159.581 71V61.22H161.461V71H159.581ZM170.05 71.24C167.95 71.24 166.71 70.06 166.71 68.28C166.71 66.48 168.05 65.36 170.35 65.18L173.43 64.94V64.66C173.43 63.02 172.45 62.44 171.13 62.44C169.55 62.44 168.65 63.14 168.65 64.32H167.01C167.01 62.28 168.69 60.94 171.21 60.94C173.63 60.94 175.27 62.22 175.27 64.86V71H173.67L173.47 69.42C172.97 70.54 171.63 71.24 170.05 71.24ZM170.59 69.78C172.37 69.78 173.45 68.62 173.45 66.78V66.26L170.95 66.46C169.29 66.62 168.61 67.26 168.61 68.22C168.61 69.26 169.37 69.78 170.59 69.78ZM182.794 71H180.914V56.28H182.794V71ZM189.481 58.9C188.801 58.9 188.241 58.34 188.241 57.66C188.241 56.96 188.801 56.42 189.481 56.42C190.161 56.42 190.721 56.96 190.721 57.66C190.721 58.34 190.161 58.9 189.481 58.9ZM188.561 71V61.22H190.441V71H188.561ZM203.191 71H195.571V69.48L200.851 62.8H195.571V61.22H203.191V62.76L197.871 69.42H203.191V71ZM212.316 71.24C209.436 71.24 207.456 69.16 207.456 66.12C207.456 63.06 209.396 60.94 212.236 60.94C215.016 60.94 216.836 62.86 216.836 65.76V66.46L209.276 66.48C209.416 68.54 210.496 69.68 212.356 69.68C213.816 69.68 214.776 69.08 215.096 67.96H216.856C216.376 70.06 214.736 71.24 212.316 71.24ZM212.236 62.52C210.596 62.52 209.556 63.5 209.316 65.22H214.956C214.956 63.6 213.896 62.52 212.236 62.52ZM227.536 61.14V62.86H226.696C224.916 62.86 223.816 63.94 223.816 65.82V71H221.936V61.24H223.696L223.816 62.72C224.216 61.7 225.196 61.02 226.536 61.02C226.876 61.02 227.156 61.06 227.536 61.14Z" fill="#63748D"/>
<defs>
<linearGradient id="paint0_linear_313_32" x1="88.3993" y1="8.24999" x2="170.798" y2="41.589" gradientUnits="userSpaceOnUse">
<stop stop-color="#EDEDED"/>
<stop offset="1" stop-color="#B6B6B6"/>
</linearGradient>
</defs>
</svg>
